<svg width="40" height="40" viewBox="0 0 40 40" fill="none" xmlns="http://www.w3.org/2000/svg">
<path d="M38.5752 14.2348L26.7736 12.5198L21.5019 1.8331C21.3486 1.57286 21.1301 1.35714 20.8679 1.20726C20.6057 1.05739 20.3089 0.978554 20.0069 0.978554C19.7049 0.978554 19.4081 1.05739 19.1459 1.20726C18.8837 1.35714 18.6652 1.57286 18.5119 1.8331L13.2302 12.5198L1.42856 14.2348C1.1208 14.2792 0.831598 14.4088 0.593658 14.609C0.355718 14.8092 0.178529 15.072 0.082123 15.3676C-0.014283 15.6633 -0.026061 15.98 0.0481206 16.2819C0.122302 16.5839 0.279485 16.8591 0.501898 17.0764L9.04356 25.3998L7.02856 37.1548C6.97605 37.4613 7.01033 37.7764 7.12753 38.0644C7.24473 38.3524 7.44018 38.6019 7.69178 38.7847C7.94338 38.9674 8.24109 39.0762 8.55125 39.0986C8.86141 39.121 9.17165 39.0561 9.4469 38.9114L20.0019 33.3631L30.5569 38.9114C30.8321 39.0561 31.1424 39.121 31.4525 39.0986C31.7627 39.0762 32.0604 38.9674 32.312 38.7847C32.5636 38.6019 32.7591 38.3524 32.8763 38.0644C32.9935 37.7764 33.0277 37.4613 32.9752 37.1548L30.9602 25.3998L39.5019 17.0764C39.7243 16.8593 39.8815 16.5844 39.9558 16.2827C40.0302 15.9809 40.0187 15.6644 39.9227 15.3689C39.8266 15.0733 39.6499 14.8105 39.4124 14.6101C39.1749 14.4097 38.8861 14.2797 38.5786 14.2348H38.5752Z" fill="#FCD420"/>
</svg>
